HIERARCHY
ROOT Hips
{
	OFFSET -3.958830 18.904000 13.208200
	CHANNELS 6 Xposition Yposition Zposition Zrotation Yrotation Xrotation 
	JOINT LHipJoint
	{
		OFFSET 0.000000 0.000000 0.000000
		CHANNELS 3 Zrotation Yrotation Xrotation
		JOINT LeftUpLeg
		{
			OFFSET 1.800000 -1.400000 0.085000
			CHANNELS 3 Zrotation Yrotation Xrotation
			JOINT LeftLeg
			{
				OFFSET 2.215000 -6.000000 0.000000
				CHANNELS 3 Zrotation Yrotation Xrotation
				JOINT LeftFoot
				{
					OFFSET 2.500000 -6.900000 0.000000
					CHANNELS 3 Zrotation Yrotation Xrotation
					JOINT LeftToeBase
					{
						OFFSET 0.200000 -0.500000 1.950000
						CHANNELS 3 Zrotation Yrotation Xrotation
						End Site
						{
							OFFSET 0.000000 0.000000 0.000000
						}
					}
				}
			}
		}
	}
	JOINT RHipJoint
	{
		OFFSET 0.000000 0.000000 0.000000
		CHANNELS 3 Zrotation Yrotation Xrotation
		JOINT RightUpLeg
		{
			OFFSET -1.800000 -1.400000 0.085000
			CHANNELS 3 Zrotation Yrotation Xrotation
			JOINT RightLeg
			{
				OFFSET -2.215000 -6.000000 0.000000
				CHANNELS 3 Zrotation Yrotation Xrotation
				JOINT RightFoot
				{
					OFFSET -2.500000 -6.900000 0.000000
					CHANNELS 3 Zrotation Yrotation Xrotation
					JOINT RightToeBase
					{
						OFFSET -0.200000 -0.500000 1.950000
						CHANNELS 3 Zrotation Yrotation Xrotation
						End Site
						{
							OFFSET 0.000000 0.000000 0.000000
						}
					}
				}
			}
		}
	}
	JOINT LowerBack
	{
		OFFSET 0.000000 0.000000 0.000000
		CHANNELS 3 Zrotation Yrotation Xrotation
		JOINT Spine
		{
			OFFSET -0.087000 1.940000 -0.288900
			CHANNELS 3 Zrotation Yrotation Xrotation
			JOINT Spine1
			{
				OFFSET 0.000000 1.950000 0.060000
				CHANNELS 3 Zrotation Yrotation Xrotation
				JOINT Neck
				{
					OFFSET 0.000000 0.000000 0.000000
					CHANNELS 3 Zrotation Yrotation Xrotation
					JOINT Neck1
					{
						OFFSET 0.000000 1.600000 0.340000
						CHANNELS 3 Zrotation Yrotation Xrotation
						JOINT Head
						{
							OFFSET 0.000000 1.667000 -0.240000
							CHANNELS 3 Zrotation Yrotation Xrotation
							End Site
							{
								OFFSET 0.000000 0.000000 0.000000
							}
						}
					}
				}
				JOINT LeftShoulder
				{
					OFFSET 0.000000 0.000000 0.000000
					CHANNELS 3 Zrotation Yrotation Xrotation
					JOINT LeftArm
					{
						OFFSET 2.700000 1.550000 -0.730000
						CHANNELS 3 Zrotation Yrotation Xrotation
						JOINT LeftForeArm
						{
							OFFSET 5.450000 0.000000 0.000000
							CHANNELS 3 Zrotation Yrotation Xrotation
							JOINT LeftHand
							{
								OFFSET 3.450000 0.000000 0.000000
								CHANNELS 3 Zrotation Yrotation Xrotation
								JOINT LeftHandIndex1
								{
									OFFSET 0.750000 0.000000 0.000000
									CHANNELS 3 Zrotation Yrotation Xrotation
									End Site
									{
										OFFSET 0.000000 0.000000 0.000000
									}
								}
							}
						}
					}
				}
				JOINT RightShoulder
				{
					OFFSET 0.000000 0.000000 0.000000
					CHANNELS 3 Zrotation Yrotation Xrotation
					JOINT RightArm
					{
						OFFSET -2.700000 1.550000 -0.730000
						CHANNELS 3 Zrotation Yrotation Xrotation
						JOINT RightForeArm
						{
							OFFSET -5.450000 0.000000 0.000000
							CHANNELS 3 Zrotation Yrotation Xrotation
							JOINT RightHand
							{
								OFFSET -3.450000 0.000000 0.000000
								CHANNELS 3 Zrotation Yrotation Xrotation
								JOINT RightHandIndex1
								{
									OFFSET -0.750000 0.000000 0.000000
									CHANNELS 3 Zrotation Yrotation Xrotation
									End Site
									{
										OFFSET 0.000000 0.000000 0.000000
									}
								}
							}
						}
					}
				}
			}
		}
	}
}
MOTION
Frames: 4
Frame Time: 0.016667
0.639530 16.447160 -14.449680 -164.376785 -72.140734 170.465743 -15.665428 13.041401 2.763890 25.096491 0.716245 -22.757474 4.437109 4.644233 15.130371 -0.169751 3.907885 2.957970 0.560910 0.355250 0.568600 17.788257 -10.526699 3.406004 -6.499754 8.345136 -34.176160 -11.328448 -0.591481 23.377963 -0.280266 -2.261964 3.287269 0.012250 -0.142170 0.296710 -5.822571 -0.259222 -8.011240 25.173692 -10.990429 33.909405 -13.484116 -4.136623 1.930474 2.560348 -9.968406 -7.256146 -19.656910 9.683089 36.286816 2.455860 2.248510 -25.223760 -28.445167 -5.114763 2.735990 -38.675993 -0.056213 -11.777498 -46.042859 -64.270118 21.695386 -3.161360 3.620659 0.559440 -0.304590 0.364390 0.064070 22.240119 12.009790 2.986166 48.144922 17.710581 -12.299746 11.954784 68.036067 2.799893 2.398840 -1.544117 0.137090 -0.017350 -0.229950 -0.017890 
0.576680 16.369130 -14.463770 -165.509994 -73.279019 173.387696 -15.645866 12.814605 2.802571 24.900551 0.107050 -23.738403 3.885549 4.558104 14.545147 -0.192981 3.813043 3.043982 0.533870 0.309900 0.539730 17.849770 -10.451709 3.498553 -7.351569 8.212810 -37.002872 -12.104176 -0.691706 25.863876 -0.295704 -2.561556 3.214261 0.007310 -0.088380 0.238390 -5.944495 -0.224608 -8.030952 26.661309 -11.064967 30.838876 -15.297023 -4.477325 -0.598115 2.947810 -10.462055 -6.210573 -20.745854 9.611431 35.985362 3.328160 2.034040 -22.970430 -31.254260 -1.680131 1.078491 -41.748136 -2.811924 -10.166052 -49.323456 -69.071068 26.735063 -3.210762 3.579393 0.558230 -0.287760 0.312280 0.100870 23.718038 8.346013 2.102938 50.136806 14.424965 -10.881007 11.346835 54.231129 2.430932 2.468337 -1.432879 0.075760 0.030800 -0.240940 -0.023340 
0.519850 16.345620 -14.477690 -171.687732 -75.864554 178.792039 -15.561618 13.045281 2.737875 22.992165 -0.698340 -22.805685 4.372996 4.009722 13.541560 -0.207604 3.442823 3.219732 0.534310 0.303110 0.522630 17.860862 -10.656542 3.446425 -8.487189 6.753763 -38.086362 -14.819537 -0.415393 29.312052 -0.395601 -3.123095 3.028756 -0.008180 -0.108920 0.179970 -5.749806 -0.771726 -7.880467 24.894943 -11.301772 31.249161 -14.974279 -5.248935 -2.406697 3.079785 -11.596561 -6.136069 -24.391141 9.657234 36.206401 5.941090 0.499650 -24.370380 -32.787963 0.145321 0.014816 -47.305242 -6.802086 -8.354950 -51.818159 -73.841843 31.175309 -3.187340 3.506337 0.600460 -0.354130 0.318220 0.123900 24.893267 6.737425 2.027812 50.437996 10.921748 -10.485560 10.617836 44.562294 1.831722 2.558116 -1.322142 0.056780 0.056040 -0.266670 -0.017810 
0.451690 16.346880 -14.438700 -172.700976 -78.819807 179.753175 -15.553399 12.970038 2.746893 22.395037 -1.353229 -22.376422 3.715334 3.758395 12.200549 -0.253420 3.311679 3.286839 0.553890 0.306670 0.496560 17.867375 -10.895968 3.166489 -8.979195 4.799119 -37.781507 -15.700079 -0.798517 30.071060 -0.440883 -3.385110 2.913318 0.003300 -0.082710 0.189650 -5.970131 -0.621619 -7.658457 27.748126 -13.085861 29.095044 -17.448080 -7.019669 -1.966911 3.414235 -12.810797 -5.867314 -27.850982 10.061492 34.315084 8.307680 -0.905680 -25.256790 -34.258737 0.871580 -0.645901 -50.512869 -10.973833 -4.517696 -64.211566 -78.828769 44.141990 -3.341130 3.345986 0.619050 -0.372180 0.308760 0.149140 25.501010 5.134143 1.978793 50.542807 8.241577 -9.618903 12.505128 37.493894 2.043825 2.610072 -1.287200 0.052720 0.069110 -0.257440 0.000610 
